<svg width="144" height="32" viewBox="0 0 144 32" fill="none" xmlns="http://www.w3.org/2000/svg">
<path d="M0 5.83381V0.386474H2.29566C2.87671 0.386474 3.38772 0.500608 3.8287 0.728878C4.27486 0.957147 4.61986 1.2762 4.86369 1.68605C5.11271 2.0959 5.23722 2.57059 5.23722 3.11014C5.23722 3.64969 5.11271 4.12438 4.86369 4.53423C4.61986 4.94408 4.27486 5.26313 3.8287 5.4914C3.38772 5.71967 2.87671 5.83381 2.29566 5.83381H0ZM0.77819 5.15678H2.24897C2.70032 5.15678 3.08942 5.07118 3.41626 4.89998C3.74828 4.72878 4.00509 4.49013 4.18666 4.18404C4.36824 3.87277 4.45903 3.5148 4.45903 3.11014C4.45903 2.70029 4.36824 2.34233 4.18666 2.03624C4.00509 1.73015 3.74828 1.4915 3.41626 1.3203C3.08942 1.1491 2.70032 1.0635 2.24897 1.0635H0.77819V5.15678Z" fill="#FEE302"/>
<path d="M6.42919 5.83381V0.386474H7.20738V5.83381H6.42919Z" fill="#FEE302"/>
<path d="M11.2973 5.89606C10.8771 5.89606 10.4906 5.82862 10.1378 5.69373C9.78503 5.55366 9.47894 5.35911 9.21955 5.11009C8.96015 4.85588 8.75782 4.56017 8.61256 4.22295C8.4673 3.88574 8.39467 3.5148 8.39467 3.11014C8.39467 2.70548 8.4673 2.33454 8.61256 1.99733C8.75782 1.66011 8.96015 1.36699 9.21955 1.11797C9.48413 0.863764 9.79281 0.669216 10.1456 0.53433C10.4984 0.394256 10.8875 0.324219 11.3129 0.324219C11.7435 0.324219 12.1378 0.394256 12.4957 0.53433C12.8537 0.674404 13.1572 0.884515 13.4062 1.16466L12.9237 1.64714C12.7007 1.42925 12.4568 1.27102 12.1922 1.17245C11.9328 1.06869 11.6501 1.01681 11.344 1.01681C11.0327 1.01681 10.7422 1.06869 10.4724 1.17245C10.2078 1.2762 9.97699 1.42147 9.77984 1.60823C9.58789 1.795 9.43744 2.01808 9.32849 2.27748C9.22474 2.53169 9.17286 2.80924 9.17286 3.11014C9.17286 3.40585 9.22474 3.68341 9.32849 3.9428C9.43744 4.19701 9.58789 4.42009 9.77984 4.61205C9.97699 4.79881 10.2078 4.94408 10.4724 5.04783C10.737 5.15159 11.0249 5.20347 11.3362 5.20347C11.6267 5.20347 11.9043 5.15937 12.1689 5.07118C12.4387 4.9778 12.6877 4.82475 12.916 4.61205L13.3595 5.20347C13.0897 5.43174 12.7733 5.60554 12.4101 5.72486C12.0522 5.83899 11.6812 5.89606 11.2973 5.89606ZM12.6125 5.10231V3.07901H13.3595V5.20347L12.6125 5.10231Z" fill="#FEE302"/>
<path d="M14.8494 5.83381V0.386474H15.6276V5.83381H14.8494Z" fill="#FEE302"/>
<path d="M18.3402 5.83381V1.0635H16.4725V0.386474H20.9782V1.0635H19.1106V5.83381H18.3402Z" fill="#FEE302"/>
<path d="M20.7273 5.83381L23.1942 0.386474H23.9646L26.4393 5.83381H25.6222L23.4199 0.82226H23.7312L21.5289 5.83381H20.7273ZM21.7779 4.47197L21.988 3.84942H25.0541L25.2798 4.47197H21.7779Z" fill="#FEE302"/>
<path d="M27.2519 5.83381V0.386474H28.03V5.15678H30.9794V5.83381H27.2519Z" fill="#FEE302"/>
<path d="M33.9622 5.83381V0.386474H34.6003L37.0439 4.5031H36.7015L39.1138 0.386474H39.752L39.7597 5.83381H39.0127L39.0049 1.56154H39.1839L37.0361 5.17234H36.6781L34.5147 1.56154H34.7093V5.83381H33.9622Z" fill="#FEE302"/>
<path d="M42.1027 2.73661H44.9042V3.39807H42.1027V2.73661ZM42.1727 5.15678H45.3478V5.83381H41.3945V0.386474H45.2388V1.0635H42.1727V5.15678Z" fill="#FEE302"/>
<path d="M46.6078 5.83381V0.386474H48.9035C49.4845 0.386474 49.9955 0.500608 50.4365 0.728878C50.8827 0.957147 51.2277 1.2762 51.4715 1.68605C51.7205 2.0959 51.845 2.57059 51.845 3.11014C51.845 3.64969 51.7205 4.12438 51.4715 4.53423C51.2277 4.94408 50.8827 5.26313 50.4365 5.4914C49.9955 5.71967 49.4845 5.83381 48.9035 5.83381H46.6078ZM47.386 5.15678H48.8568C49.3081 5.15678 49.6972 5.07118 50.0241 4.89998C50.3561 4.72878 50.6129 4.49013 50.7945 4.18404C50.9761 3.87277 51.0668 3.5148 51.0668 3.11014C51.0668 2.70029 50.9761 2.34233 50.7945 2.03624C50.6129 1.73015 50.3561 1.4915 50.0241 1.3203C49.6972 1.1491 49.3081 1.0635 48.8568 1.0635H47.386V5.15678Z" fill="#FEE302"/>
<path d="M53.037 5.83381V0.386474H53.8152V5.83381H53.037Z" fill="#FEE302"/>
<path d="M54.6212 5.83381L57.088 0.386474H57.8584L60.3331 5.83381H59.516L57.3137 0.82226H57.625L55.4227 5.83381H54.6212ZM55.6717 4.47197L55.8818 3.84942H58.9479L59.1736 4.47197H55.6717Z" fill="#FEE302"/>
<path d="M12.0878 8.27748C13.3951 8.27748 14.578 8.54725 15.6363 9.08679C16.6947 9.60559 17.5247 10.4253 18.1265 11.5459C18.7491 12.6665 19.0604 14.1191 19.0604 15.9037V25.6156H12.0255V17.1177C12.0255 16.0594 11.8387 15.3123 11.4652 14.8765C11.0917 14.42 10.5833 14.1917 9.93996 14.1917C9.46267 14.1917 9.01651 14.3059 8.60148 14.5341C8.20719 14.7416 7.88554 15.0944 7.63652 15.5925C7.40825 16.0905 7.29412 16.7649 7.29412 17.6158V25.6156H0.259277V8.58875H6.95171V13.5692L5.61323 12.1373C6.27728 10.8507 7.16961 9.88574 8.2902 9.24243C9.43155 8.59913 10.6974 8.27748 12.0878 8.27748Z" fill="#FFFAFA"/>
<path d="M31.82 25.9268C29.7448 25.9268 27.929 25.5429 26.3727 24.7751C24.837 24.0073 23.6438 22.9593 22.793 21.6312C21.9422 20.2824 21.5168 18.7675 21.5168 17.0866C21.5168 15.3642 21.9318 13.8389 22.7619 12.5108C23.6127 11.1827 24.7644 10.1451 26.217 9.39807C27.6904 8.65101 29.3402 8.27748 31.1663 8.27748C32.8472 8.27748 34.3932 8.6095 35.8043 9.27356C37.2362 9.93762 38.3775 10.9233 39.2284 12.2307C40.0999 13.538 40.5357 15.1567 40.5357 17.0866C40.5357 17.3356 40.5253 17.6158 40.5046 17.927C40.4838 18.2176 40.4631 18.4873 40.4423 18.7364H27.3376V15.3434H36.707L34.0612 16.2461C34.0612 15.5821 33.9367 15.0218 33.6877 14.5653C33.4594 14.088 33.1377 13.7248 32.7227 13.4758C32.3077 13.206 31.8096 13.0711 31.2286 13.0711C30.6475 13.0711 30.1391 13.206 29.7033 13.4758C29.2883 13.7248 28.9666 14.088 28.7384 14.5653C28.5101 15.0218 28.396 15.5821 28.396 16.2461V17.3045C28.396 18.0308 28.5412 18.6533 28.8317 19.1721C29.1223 19.6909 29.5373 20.0852 30.0768 20.355C30.6164 20.604 31.2701 20.7285 32.0379 20.7285C32.8265 20.7285 33.4698 20.6248 33.9678 20.4172C34.4866 20.2097 35.0261 19.8984 35.5864 19.4834L39.2595 23.1876C38.4294 24.0799 37.4022 24.7647 36.1779 25.242C34.9743 25.6986 33.5216 25.9268 31.82 25.9268Z" fill="#FFFAFA"/>
<path d="M46.6229 25.6156L40.7086 8.58875H47.3699L51.8523 22.4094H48.6462L53.3464 8.58875H59.3229L63.8053 22.4094H60.6926L66.4796 6.16077H69.5612H72.6429L65.5796 25.6156H58.7315L55.1518 14.6586H57.2063L53.471 25.6156H46.6229Z" fill="#FFFAFA"/>
<path d="M81.0473 31.9656C79.3664 31.9656 77.7893 31.7892 76.3159 31.4364C74.8426 31.0836 73.5767 30.5545 72.5184 29.8489L74.8841 25.0553C75.5481 25.5741 76.3886 25.9787 77.4054 26.2692C78.443 26.5805 79.4183 26.7361 80.3314 26.7361C81.784 26.7361 82.8216 26.4249 83.4442 25.8023C84.0667 25.2005 84.378 24.3289 84.378 23.1876V21.7557L84.6893 16.464L84.7204 11.1723V8.58875H91.4128V22.2226C91.4128 25.5222 90.4998 27.9709 88.6736 29.5688C86.8474 31.1666 84.3054 31.9656 81.0473 31.9656ZM79.6777 24.6817C78.2458 24.6817 76.9074 24.3497 75.6623 23.6856C74.4172 23.0008 73.4107 22.0463 72.6429 20.8219C71.8751 19.5975 71.4912 18.1449 71.4912 16.464C71.4912 14.7831 71.8751 13.3305 72.6429 12.1062C73.4107 10.8818 74.4172 9.93762 75.6623 9.27356C76.9074 8.6095 78.2458 8.27748 79.6777 8.27748C81.1511 8.27748 82.3547 8.568 83.2885 9.14905C84.2431 9.7301 84.9487 10.6328 85.4052 11.8572C85.8617 13.0608 86.09 14.5964 86.09 16.464C86.09 18.3317 85.8617 19.8777 85.4052 21.1021C84.9487 22.3057 84.2431 23.2084 83.2885 23.8102C82.3547 24.3912 81.1511 24.6817 79.6777 24.6817ZM81.5454 19.2033C82.1057 19.2033 82.6037 19.0891 83.0395 18.8609C83.4753 18.6326 83.8177 18.3109 84.0667 17.8959C84.3157 17.4809 84.4402 17.0036 84.4402 16.464C84.4402 15.9037 84.3157 15.4265 84.0667 15.0322C83.8177 14.6171 83.4753 14.3059 83.0395 14.0983C82.6037 13.8701 82.1057 13.7559 81.5454 13.7559C81.0058 13.7559 80.5078 13.8701 80.0512 14.0983C79.6155 14.3059 79.2627 14.6171 78.9929 15.0322C78.7439 15.4265 78.6194 15.9037 78.6194 16.464C78.6194 17.0036 78.7439 17.4809 78.9929 17.8959C79.2627 18.3109 79.6155 18.6326 80.0512 18.8609C80.5078 19.0891 81.0058 19.2033 81.5454 19.2033Z" fill="#FFFAFA"/>
<path d="M103.924 25.9268C101.849 25.9268 100.033 25.5429 98.4768 24.7751C96.9412 24.0073 95.748 22.9593 94.8972 21.6312C94.0464 20.2824 93.6209 18.7675 93.6209 17.0866C93.6209 15.3642 94.036 13.8389 94.866 12.5108C95.7169 11.1827 96.8686 10.1451 98.3212 9.39807C99.7946 8.65101 101.444 8.27748 103.271 8.27748C104.951 8.27748 106.497 8.6095 107.909 9.27356C109.34 9.93762 110.482 10.9233 111.333 12.2307C112.204 13.538 112.64 15.1567 112.64 17.0866C112.64 17.3356 112.63 17.6158 112.609 17.927C112.588 18.2176 112.567 18.4873 112.547 18.7364H99.4418V15.3434H108.811L106.165 16.2461C106.165 15.5821 106.041 15.0218 105.792 14.5653C105.564 14.088 105.242 13.7248 104.827 13.4758C104.412 13.206 103.914 13.0711 103.333 13.0711C102.752 13.0711 102.243 13.206 101.807 13.4758C101.392 13.7248 101.071 14.088 100.843 14.5653C100.614 15.0218 100.5 15.5821 100.5 16.2461V17.3045C100.5 18.0308 100.645 18.6533 100.936 19.1721C101.226 19.6909 101.641 20.0852 102.181 20.355C102.721 20.604 103.374 20.7285 104.142 20.7285C104.931 20.7285 105.574 20.6248 106.072 20.4172C106.591 20.2097 107.13 19.8984 107.691 19.4834L111.364 23.1876C110.534 24.0799 109.506 24.7647 108.282 25.242C107.078 25.6986 105.626 25.9268 103.924 25.9268Z" fill="#FFFAFA"/>
<path d="M126.688 8.27748C127.996 8.27748 129.179 8.54725 130.237 9.08679C131.295 9.60559 132.125 10.4253 132.727 11.5459C133.35 12.6665 133.661 14.1191 133.661 15.9037V25.6156H126.626V17.1177C126.626 16.0594 126.439 15.3123 126.066 14.8765C125.692 14.42 125.184 14.1917 124.541 14.1917C124.063 14.1917 123.617 14.3059 123.202 14.5341C122.808 14.7416 122.486 15.0944 122.237 15.5925C122.009 16.0905 121.895 16.7649 121.895 17.6158V25.6156H114.86V8.58875H121.552V13.5692L120.214 12.1373C120.878 10.8507 121.77 9.88574 122.891 9.24243C124.032 8.59913 125.298 8.27748 126.688 8.27748Z" fill="#FFFAFA"/>
<path d="M139.891 25.9268C138.729 25.9268 137.754 25.5533 136.965 24.8062C136.177 24.0384 135.782 23.0631 135.782 21.8802C135.782 20.6766 136.177 19.7117 136.965 18.9854C137.754 18.2591 138.729 17.8959 139.891 17.8959C141.053 17.8959 142.029 18.2591 142.817 18.9854C143.606 19.7117 144 20.6766 144 21.8802C144 23.0631 143.606 24.0384 142.817 24.8062C142.029 25.5533 141.053 25.9268 139.891 25.9268Z" fill="#FEE302"/>
<path d="M71.658 0L75.2248 6.16067H64.2004L71.658 0Z" fill="#FFFAFA"/>
</svg>
