<svg width="78" height="78" viewBox="0 0 78 78" fill="none" xmlns="http://www.w3.org/2000/svg">
<path d="M60.3784 77.6389C59.9744 77.6389 59.5869 77.4784 59.3012 77.1927C59.0155 76.907 58.855 76.5195 58.855 76.1155V70.7499C58.8436 66.3537 60.2687 62.0742 62.9134 58.5624C64.1237 56.9746 64.6917 54.9892 64.5043 53.0015C64.3168 51.0137 63.3877 49.1695 61.9019 47.8359V51.7664C61.9019 54.6442 59.6045 57.0649 56.7801 57.1639C56.0671 57.1895 55.3564 57.0711 54.6902 56.8159C54.024 56.5607 53.4161 56.1738 52.9027 55.6784C52.3894 55.183 51.9812 54.5892 51.7025 53.9325C51.4237 53.2758 51.2802 52.5697 51.2805 51.8563V47.8359C49.8027 49.1598 48.8755 50.9901 48.6823 52.9647C48.489 54.9394 49.0438 56.9147 50.2369 58.5C52.9121 62.0572 54.3273 66.1827 54.3273 70.4285V76.1124C54.3273 76.5165 54.1668 76.904 53.8811 77.1897C53.5954 77.4754 53.2079 77.6359 52.8039 77.6359C52.3999 77.6359 52.0124 77.4754 51.7267 77.1897C51.441 76.904 51.2805 76.5165 51.2805 76.1124V70.4315C51.2805 66.8515 50.077 63.3597 47.8025 60.3342C46.8049 59.0096 46.1206 57.4761 45.8011 55.849C45.4816 54.2219 45.5352 52.5435 45.9578 50.94C46.3804 49.3366 47.161 47.8498 48.241 46.5916C49.321 45.3333 50.6722 44.3362 52.193 43.6754C52.4248 43.5742 52.6781 43.5324 52.9301 43.5536C53.1821 43.5748 53.4249 43.6584 53.6365 43.7968C53.8481 43.9353 54.0219 44.1243 54.1423 44.3467C54.2626 44.5691 54.3257 44.818 54.3258 45.0709V51.8563C54.3256 52.1605 54.3868 52.4617 54.5057 52.7418C54.6246 53.0219 54.7987 53.2751 55.0178 53.4863C55.2368 53.6975 55.4962 53.8624 55.7804 53.971C56.0646 54.0797 56.3678 54.1298 56.6719 54.1186C57.8754 54.0774 58.8535 53.0217 58.8535 51.7664V45.0709C58.8536 44.818 58.9167 44.5691 59.037 44.3467C59.1574 44.1243 59.3312 43.9353 59.5428 43.7968C59.7544 43.6584 59.9972 43.5748 60.2492 43.5536C60.5012 43.5324 60.7545 43.5742 60.9863 43.6754C62.5125 44.3416 63.8675 45.3458 64.9487 46.6123C66.03 47.8788 66.8094 49.3744 67.228 50.9862C67.6466 52.598 67.6936 54.2839 67.3652 55.9165C67.0369 57.5491 66.3419 59.0857 65.3327 60.4104C63.0925 63.3909 61.8868 67.0214 61.8988 70.7499V76.1155C61.8988 76.519 61.7387 76.906 61.4537 77.1916C61.1687 77.4772 60.7819 77.6381 60.3784 77.6389Z" fill="#FEE302"/>
<path d="M32.8819 33.0281C24.2821 33.0281 16.1743 31.4163 10.0547 28.4883C3.56941 25.3896 0 21.1377 0 16.5141C0 11.8904 3.56941 7.63852 10.0547 4.53984C16.1743 1.6118 24.2821 0 32.8819 0C41.4817 0 49.5879 1.6118 55.7121 4.53984C62.1928 7.63852 65.7668 11.8904 65.7668 16.5141C65.7668 21.1377 62.1974 25.3896 55.7121 28.4883C49.5879 31.4163 41.4802 33.0281 32.8819 33.0281ZM32.8819 3.04688C24.7284 3.04688 17.0869 4.55355 11.3648 7.28813C6.07852 9.81551 3.04688 13.1777 3.04688 16.5141C3.04688 19.8504 6.07852 23.2172 11.3648 25.74C17.0869 28.4746 24.7284 29.9813 32.8819 29.9813C41.0353 29.9813 48.6754 28.4746 54.3974 25.7461C59.6837 23.2187 62.7154 19.8565 62.7154 16.5202C62.7154 13.1838 59.6837 9.81703 54.3974 7.29422C48.6754 4.55355 41.0353 3.04688 32.8819 3.04688ZM32.8819 48.0188C24.2821 48.0188 16.1743 46.407 10.0501 43.4789C3.56941 40.3802 0 36.1283 0 31.5047C0 31.1006 0.160505 30.7132 0.446205 30.4275C0.731904 30.1418 1.1194 29.9813 1.52344 29.9813C1.92748 29.9813 2.31497 30.1418 2.60067 30.4275C2.88637 30.7132 3.04688 31.1006 3.04688 31.5047C3.04688 34.841 6.07852 38.2078 11.3648 40.7306C17.0869 43.4652 24.7284 44.9719 32.8819 44.9719C35.0953 44.9731 37.3073 44.8587 39.5088 44.6291C39.7109 44.6015 39.9165 44.6147 40.1134 44.668C40.3103 44.7213 40.4945 44.8137 40.6551 44.9395C40.8156 45.0654 40.9492 45.2222 41.048 45.4006C41.1468 45.5791 41.2088 45.7756 41.2302 45.9785C41.2517 46.1813 41.2321 46.3864 41.1728 46.5816C41.1135 46.7768 41.0155 46.958 40.8848 47.1146C40.7541 47.2713 40.5933 47.4 40.4119 47.4933C40.2305 47.5866 40.0322 47.6425 39.8288 47.6577C37.521 47.8994 35.2022 48.02 32.8819 48.0188ZM32.8819 63.0094C24.2821 63.0094 16.1743 61.3945 10.0547 58.4695C3.56941 55.3709 0 51.1189 0 46.4953C0 46.0913 0.160505 45.7038 0.446205 45.4181C0.731904 45.1324 1.1194 44.9719 1.52344 44.9719C1.92748 44.9719 2.31497 45.1324 2.60067 45.4181C2.88637 45.7038 3.04688 46.0913 3.04688 46.4953C3.04688 49.8316 6.07852 53.1984 11.3648 55.7213C17.0869 58.4558 24.7284 59.9625 32.8819 59.9625C34.3032 59.9625 35.749 59.9153 37.1764 59.8208C37.5732 59.8053 37.9603 59.9453 38.2553 60.211C38.5504 60.4767 38.7301 60.8471 38.7561 61.2433C38.7821 61.6395 38.6524 62.0302 38.3946 62.3322C38.1369 62.6341 37.7714 62.8236 37.376 62.8601C35.883 62.9591 34.3703 63.0094 32.8819 63.0094Z" fill="#FEE302"/>
<path d="M32.8819 78C24.2821 78 16.1743 76.3882 10.0547 73.4601C3.56941 70.3615 0 66.1172 0 61.4859V18.3498C0 17.9457 0.160505 17.5582 0.446205 17.2725C0.731904 16.9868 1.1194 16.8263 1.52344 16.8263C1.92748 16.8263 2.31497 16.9868 2.60067 17.2725C2.88637 17.5582 3.04688 17.9457 3.04688 18.3498V61.4859C3.04688 64.8222 6.07852 68.189 11.3648 70.7119C17.0869 73.4464 24.7284 74.9531 32.8819 74.9531C38.089 74.9531 43.2245 74.3178 47.7323 73.1174C47.9273 73.0605 48.1316 73.0432 48.3333 73.0665C48.535 73.0897 48.73 73.1531 48.9069 73.2528C49.0837 73.3525 49.2389 73.4865 49.3632 73.6471C49.4875 73.8076 49.5785 73.9913 49.6308 74.1875C49.6831 74.3837 49.6956 74.5884 49.6677 74.7895C49.6398 74.9906 49.5719 75.1841 49.4682 75.3586C49.3644 75.5331 49.2268 75.6851 49.0634 75.8056C48.9001 75.9262 48.7143 76.0129 48.5169 76.0606C43.7562 77.3297 38.3495 78 32.8819 78ZM64.2388 39.7617C63.8348 39.7617 63.4473 39.6012 63.1616 39.3155C62.8759 39.0298 62.7154 38.6423 62.7154 38.2383V16.514C62.7154 16.11 62.8759 15.7225 63.1616 15.4368C63.4473 15.1511 63.8348 14.9906 64.2388 14.9906C64.6428 14.9906 65.0303 15.1511 65.316 15.4368C65.6017 15.7225 65.7622 16.11 65.7622 16.514V38.2383C65.7622 38.6423 65.6017 39.0298 65.316 39.3155C65.0303 39.6012 64.6428 39.7617 64.2388 39.7617Z" fill="#FEE302"/>
<path d="M7.64148 33.6406C7.54169 33.6403 7.44217 33.6301 7.34441 33.6101C7.24686 33.5905 7.15146 33.5614 7.05953 33.5233C6.9674 33.4851 6.87914 33.4382 6.79597 33.3831C6.71252 33.3283 6.63492 33.265 6.56441 33.1942C6.40504 33.0349 6.28301 32.8422 6.20711 32.63C6.13121 32.4178 6.10333 32.1914 6.12548 31.9671C6.14763 31.7429 6.21926 31.5263 6.3352 31.3331C6.45114 31.1398 6.60852 30.9747 6.79597 30.8496C6.87914 30.7946 6.9674 30.7477 7.05953 30.7095C7.15146 30.6714 7.24686 30.6423 7.34441 30.6227C7.54099 30.5831 7.74349 30.5831 7.94007 30.6227C8.03751 30.6427 8.13288 30.6718 8.22496 30.7095C8.45681 30.8049 8.66154 30.956 8.82099 31.1495C8.98044 31.3429 9.08968 31.5728 9.13902 31.8186C9.18726 32.0638 9.17441 32.3171 9.10161 32.5563C9.02882 32.7954 8.89831 33.0129 8.7216 33.1896C8.65108 33.2604 8.57349 33.3237 8.49003 33.3786C8.40739 33.4336 8.31964 33.4805 8.228 33.5187C8.13593 33.5564 8.04056 33.5855 7.94312 33.6055C7.84399 33.6272 7.74294 33.639 7.64148 33.6406ZM13.7611 36.6996C13.6588 36.6998 13.5567 36.6895 13.4564 36.6692C13.359 36.6493 13.2636 36.6202 13.1716 36.5823C13.0799 36.5441 12.9922 36.4972 12.9095 36.4422C12.8284 36.3884 12.7529 36.3267 12.6841 36.2579C12.5073 36.0811 12.3768 35.8636 12.304 35.6245C12.2312 35.3853 12.2184 35.132 12.2666 34.8868C12.2867 34.7893 12.3158 34.694 12.3535 34.6019C12.5081 34.2288 12.8045 33.9323 13.1777 33.7777C13.2697 33.7398 13.365 33.7107 13.4625 33.6909C13.6591 33.6513 13.8616 33.6513 14.0582 33.6909C14.1557 33.7105 14.2512 33.7396 14.3431 33.7777C14.4352 33.8159 14.5235 33.8628 14.6066 33.9179C14.6895 33.9741 14.767 34.0379 14.8382 34.1083C14.9089 34.1788 14.9722 34.2564 15.0271 34.3398C15.0821 34.4225 15.1291 34.5102 15.1673 34.6019C15.2049 34.694 15.234 34.7893 15.2541 34.8868C15.3141 35.1824 15.2845 35.4892 15.1692 35.7679C15.0539 36.0466 14.858 36.2846 14.6066 36.4513C14.5235 36.5064 14.4352 36.5533 14.3431 36.5915C14.2512 36.6296 14.1557 36.6587 14.0582 36.6783C13.9601 36.6953 13.8606 36.7024 13.7611 36.6996ZM7.64148 48.9359C7.23747 48.9358 6.85004 48.7753 6.56441 48.4895C6.49368 48.419 6.43037 48.3414 6.3755 48.258C6.2648 48.0923 6.18768 47.9065 6.14851 47.7111C6.10791 47.5146 6.10791 47.3119 6.14851 47.1154C6.16818 47.0178 6.19726 46.9224 6.23535 46.8305C6.27385 46.7385 6.32077 46.6503 6.3755 46.567C6.43073 46.4838 6.494 46.4062 6.56441 46.3354C6.63492 46.2647 6.71252 46.2014 6.79597 46.1465C6.87896 46.0911 6.96724 46.0442 7.05953 46.0063C7.15146 45.9682 7.24686 45.9392 7.34441 45.9195C7.54099 45.8799 7.74349 45.8799 7.94007 45.9195C8.03808 45.94 8.13396 45.9696 8.22648 46.0079C8.31812 46.0461 8.40587 46.093 8.48851 46.148C8.57197 46.2029 8.64956 46.2662 8.72007 46.3369C8.79093 46.4077 8.85471 46.4853 8.9105 46.5685C8.96524 46.6518 9.01215 46.7401 9.05066 46.832C9.08875 46.924 9.11783 47.0194 9.1375 47.1169C9.1761 47.3136 9.1761 47.5159 9.1375 47.7126C9.09833 47.908 9.02121 48.0938 8.9105 48.2595C8.79861 48.4262 8.65527 48.5696 8.48851 48.6815C8.40587 48.7365 8.31812 48.7834 8.22648 48.8216C8.1344 48.8593 8.03903 48.8884 7.9416 48.9085C7.84271 48.9275 7.74218 48.9367 7.64148 48.9359ZM13.7611 51.9965C13.6588 51.9966 13.5567 51.9864 13.4564 51.966C13.359 51.9459 13.2636 51.9169 13.1716 51.8792C13.0799 51.841 12.9922 51.794 12.9095 51.739C12.8261 51.6842 12.7485 51.6209 12.678 51.5501C12.6087 51.4791 12.5465 51.4015 12.4921 51.3186C12.4374 51.2352 12.3905 51.147 12.3519 51.055C12.3139 50.9631 12.2848 50.8677 12.2651 50.7701C12.2265 50.5734 12.2265 50.3711 12.2651 50.1745C12.2848 50.0769 12.3139 49.9815 12.3519 49.8896C12.3905 49.7976 12.4374 49.7094 12.4921 49.626C12.5479 49.5428 12.6117 49.4653 12.6825 49.3945C12.7536 49.3242 12.8317 49.2614 12.9156 49.2071C13.0813 49.0964 13.2671 49.0192 13.4625 48.9801C13.6591 48.9405 13.8616 48.9405 14.0582 48.9801C14.1557 48.9997 14.2512 49.0288 14.3431 49.0669C14.4352 49.1051 14.5235 49.152 14.6066 49.2071C14.6901 49.2619 14.7677 49.3252 14.8382 49.396C14.9086 49.4668 14.9719 49.5443 15.0271 49.6275C15.0818 49.7109 15.1288 49.7991 15.1673 49.8911C15.2053 49.983 15.2344 50.0784 15.2541 50.176C15.2947 50.3725 15.2947 50.5752 15.2541 50.7716C15.2344 50.8692 15.2053 50.9646 15.1673 51.0565C15.1288 51.1485 15.0818 51.2367 15.0271 51.3201C14.9168 51.4872 14.7738 51.6303 14.6066 51.7405C14.5235 51.7956 14.4352 51.8425 14.3431 51.8807C14.2512 51.9188 14.1557 51.9479 14.0582 51.9675C13.9604 51.987 13.8609 51.9967 13.7611 51.9965ZM7.64148 64.2327C7.54174 64.233 7.44222 64.2233 7.34441 64.2038C7.24686 64.1841 7.15146 64.155 7.05953 64.117C6.96724 64.0791 6.87896 64.0321 6.79597 63.9768C6.71283 63.9209 6.63529 63.8572 6.56441 63.7864C6.49368 63.7159 6.43037 63.6383 6.3755 63.5548C6.32048 63.4722 6.27355 63.3844 6.23535 63.2928C6.19767 63.2007 6.1686 63.1053 6.14851 63.0079C6.12815 62.9076 6.11794 62.8055 6.11804 62.7032C6.1183 62.6034 6.1285 62.5039 6.14851 62.4061C6.16818 62.3086 6.19726 62.2132 6.23535 62.1212C6.27321 62.029 6.32016 61.9407 6.3755 61.8577C6.48579 61.6906 6.62883 61.5475 6.79597 61.4372C6.87896 61.3819 6.96724 61.3349 7.05953 61.2971C7.15146 61.259 7.24686 61.2299 7.34441 61.2102C7.54099 61.1706 7.74349 61.1706 7.94007 61.2102C8.03751 61.2303 8.13288 61.2594 8.22496 61.2971C8.3166 61.3353 8.40435 61.3822 8.48699 61.4372C8.57044 61.4921 8.64804 61.5554 8.71855 61.6261C8.78934 61.697 8.85311 61.7746 8.90898 61.8577C8.96432 61.9407 9.01128 62.029 9.04914 62.1212C9.08723 62.2132 9.11631 62.3086 9.13597 62.4061C9.15548 62.5039 9.16518 62.6035 9.16492 62.7032C9.16552 62.8055 9.15582 62.9076 9.13597 63.0079C9.11588 63.1053 9.08681 63.2007 9.04914 63.2928C8.89488 63.6656 8.59902 63.962 8.22648 64.117C8.1344 64.1546 8.03903 64.1837 7.9416 64.2038C7.84276 64.2233 7.74223 64.233 7.64148 64.2327ZM13.7611 67.2918C13.6588 67.2925 13.5568 67.2828 13.4564 67.2628C13.2628 67.2215 13.0791 67.1429 12.9156 67.0313C12.6647 66.864 12.469 66.6259 12.3535 66.3473C12.3154 66.2553 12.2863 66.1599 12.2666 66.0624C12.2467 65.9621 12.237 65.86 12.2377 65.7577C12.2374 65.658 12.2471 65.5584 12.2666 65.4606C12.2863 65.3631 12.3154 65.2677 12.3535 65.1757C12.3913 65.0835 12.4383 64.9952 12.4936 64.9122C12.549 64.8291 12.6122 64.7515 12.6825 64.6806C12.8244 64.5395 12.9926 64.4277 13.1777 64.3516C13.2696 64.3135 13.365 64.2844 13.4625 64.2647C13.6591 64.2251 13.8616 64.2251 14.0582 64.2647C14.1557 64.2844 14.2512 64.3135 14.3431 64.3516C14.4354 64.3894 14.5236 64.4364 14.6066 64.4917C14.6901 64.5466 14.7677 64.6099 14.8382 64.6806C14.9086 64.7514 14.9719 64.829 15.0271 64.9122C15.0824 64.9952 15.1294 65.0835 15.1673 65.1757C15.2053 65.2677 15.2344 65.3631 15.2541 65.4606C15.2741 65.5584 15.2843 65.6579 15.2846 65.7577C15.2847 65.86 15.2745 65.9621 15.2541 66.0624C15.2149 66.2578 15.1378 66.4436 15.0271 66.6093C14.9722 66.6928 14.9089 66.7703 14.8382 66.8409C14.6971 66.9832 14.5294 67.0962 14.3446 67.1736C14.1598 67.251 13.9615 67.2912 13.7611 67.2918Z" fill="#FEE302"/>
<path d="M56.5911 78C44.789 78 35.1823 68.4023 35.1823 56.5911C35.1823 44.7799 44.7799 35.1823 56.5911 35.1823C68.4023 35.1823 78 44.789 78 56.5911C78 68.3932 68.4023 78 56.5911 78ZM56.5911 38.2291C52.9595 38.2291 49.4094 39.306 46.3897 41.3237C43.3701 43.3413 41.0166 46.2091 39.6269 49.5643C38.2371 52.9195 37.8734 56.6115 38.5819 60.1734C39.2904 63.7352 41.0393 67.007 43.6072 69.575C46.1752 72.143 49.447 73.8918 53.0089 74.6003C56.5707 75.3088 60.2627 74.9452 63.618 73.5554C66.9732 72.1656 69.8409 69.8121 71.8586 66.7925C73.8762 63.7729 74.9531 60.2228 74.9531 56.5911C74.9475 51.7229 73.0111 47.0558 69.5688 43.6135C66.1265 40.1711 61.4593 38.2348 56.5911 38.2291Z" fill="#FEE302"/>
</svg>
