<svg width="91" height="91" viewBox="0 0 91 91" fill="none" xmlns="http://www.w3.org/2000/svg">
<path d="M90.0125 31.4619L81.7029 24.4327C81.1756 23.9866 80.3776 24.0549 79.9296 24.5845L79.1694 25.4831C77.9872 25.5843 76.0972 25.5824 74.9946 24.6497C73.3167 23.2303 74.8559 20.0172 73.3216 18.1688C71.7874 16.3203 69.3823 14.0105 67.6725 12.5641C65.9626 11.1177 59.2678 5.64725 48.4542 2.22632C37.6406 -1.1946 28.1864 2.94911 25.8506 5.51588C24.6216 6.87149 23.4177 9.26694 25.9418 8.64896C28.4658 8.03097 37.325 6.63251 41.2303 9.27533C45.1061 11.9207 48.4246 15.5813 49.0747 20.6463C49.7079 25.5044 48.2973 28.4683 42.5008 35.3207L41.1746 34.7495C40.311 34.3768 39.2822 34.718 38.8342 35.2475C38.8342 35.2475 37.9199 36.2636 29.2455 46.5181C16.4035 61.6993 0.288168 77.25 0.288168 77.25C-0.159808 77.7796 -0.0948723 78.5778 0.432468 79.0239L13.8557 90.3788C14.383 90.8249 15.181 90.7566 15.629 90.227C15.629 90.227 28.2927 71.7565 41.1346 56.5753C49.809 46.3208 50.6594 45.2506 50.6594 45.2506C51.1074 44.7211 51.3508 43.688 50.7626 42.8601L49.7557 41.4577C54.9413 35.3275 57.0223 32.7379 59.7084 31.7339C62.5103 30.6902 66.3806 31.0734 67.8618 31.7207C69.0489 32.2293 70.2421 34.0921 70.495 35.7377L68.5266 38.0646C68.0786 38.5942 68.1436 39.3924 68.6709 39.8385L76.9805 46.8677C77.5079 47.3138 78.3058 47.2455 78.7538 46.7159L90.1568 33.2358C90.6048 32.7062 90.5399 31.908 90.0125 31.4619Z" fill="#FEE302"/>
</svg>
