<svg width="702" height="596" viewBox="0 0 702 596" fill="none" xmlns="http://www.w3.org/2000/svg">
<path opacity="0.1" d="M613.52 459.13H693.81C698.17 456.88 701.16 452.31 701.16 447.04C701.16 440.22 696.15 434.57 689.63 433.6C689.64 433.38 689.65 433.16 689.65 432.93C689.65 424.95 683.05 418.48 674.91 418.48C674.06 418.48 673.23 418.55 672.41 418.69C668.9 412.6 662.05 408.47 654.18 408.47C645.01 408.47 637.23 414.08 634.5 421.86C633.64 421.69 632.75 421.59 631.85 421.59C624.03 421.59 617.69 428.32 617.69 436.62C617.69 437.55 617.77 438.47 617.92 439.35C612 439.73 607.32 444.26 607.32 449.8C607.32 453.87 609.84 457.39 613.52 459.13Z" fill="white"/>
<path d="M669.13 334.56C669.13 149.79 519.34 0 334.56 0C149.79 0 0 149.79 0 334.56C0 439.96 48.76 533.96 124.93 595.28H544.2C620.37 533.96 669.13 439.96 669.13 334.56Z" fill="url(#paint0_linear_105_71)"/>
<path opacity="0.4" d="M426.6 204.55C426.6 206.61 425.95 208.27 425.15 208.27H342.9C342.1 208.27 341.45 206.6 341.45 204.55C341.45 202.49 342.1 200.83 342.9 200.83H425.15C425.95 200.83 426.6 202.5 426.6 204.55Z" fill="white"/>
<path opacity="0.4" d="M590.03 170.99C590.03 173.05 588.13 174.71 585.79 174.71H345.69C343.35 174.71 341.45 173.04 341.45 170.99C341.45 168.93 343.35 167.27 345.69 167.27H585.79C588.13 167.27 590.03 168.94 590.03 170.99ZM506.04 186.81C506.04 188.87 504.78 190.53 503.23 190.53H344.25C342.7 190.53 341.44 188.86 341.44 186.81C341.44 184.75 342.7 183.09 344.25 183.09H503.23C504.78 183.09 506.04 184.75 506.04 186.81Z" fill="white"/>
<path fill-rule="evenodd" clip-rule="evenodd" d="M223.65 577.47V576.61H278.72L223.65 577.47ZM206.46 577.47L159.08 576.61H206.46V577.47Z" fill="white"/>
<path d="M566.06 502.56C566.06 502.56 563.9 488.89 564.11 485.95C564.32 483.01 565.13 467.48 565.13 467.48L567.22 465.62C567.22 465.62 565.16 482.92 565.42 488.03C565.67 493.13 566.06 502.56 566.06 502.56Z" fill="url(#paint1_linear_105_71)"/>
<path fill-rule="evenodd" clip-rule="evenodd" d="M477.61 366.79H489.19V595.03H477.61V366.79Z" fill="#1289CC"/>
<path fill-rule="evenodd" clip-rule="evenodd" d="M471.92 366.79H483.5V595.03H471.92V366.79Z" fill="black"/>
<path fill-rule="evenodd" clip-rule="evenodd" d="M514.98 366.79H526.51V595.03H514.98V366.79Z" fill="#1289CC"/>
<path fill-rule="evenodd" clip-rule="evenodd" d="M509.29 366.79H520.82V595.03H509.29V366.79Z" fill="black"/>
<path fill-rule="evenodd" clip-rule="evenodd" d="M232.46 366.79H244.04V595.03H232.46V366.79Z" fill="#125CAE"/>
<path fill-rule="evenodd" clip-rule="evenodd" d="M226.78 366.79H238.36V595.03H226.78V366.79Z" fill="black"/>
<path fill-rule="evenodd" clip-rule="evenodd" d="M269.83 366.79H281.36V595.03H269.83V366.79Z" fill="#1289CC"/>
<path fill-rule="evenodd" clip-rule="evenodd" d="M264.15 366.79H275.68V595.03H264.15V366.79Z" fill="black"/>
<path fill-rule="evenodd" clip-rule="evenodd" d="M184.42 357.32H548.87V379.93H184.42V357.32Z" fill="black"/>
<path fill-rule="evenodd" clip-rule="evenodd" d="M347.16 275.97L459.32 268.07L461.11 272L446.4 352.25H441.23L330.37 359.05L347.16 275.97Z" fill="url(#paint2_linear_105_71)"/>
<path fill-rule="evenodd" clip-rule="evenodd" d="M343.24 268.07H458.92L442.13 351.2H326.44L343.24 268.07Z" fill="black"/>
<path fill-rule="evenodd" clip-rule="evenodd" d="M410.72 351.05H442.47V357.31H410.72V351.05Z" fill="url(#paint3_linear_105_71)"/>
<path fill-rule="evenodd" clip-rule="evenodd" d="M303.78 351.05H410.72V357.31H303.78V351.05Z" fill="#431CA3"/>
<path fill-rule="evenodd" clip-rule="evenodd" d="M347.16 272.89L332.3 346.33H438.15L453.01 272.89H347.16Z" fill="#3F2759"/>
<path fill-rule="evenodd" clip-rule="evenodd" d="M366.64 357.32C370.22 357.76 377.77 356.62 383.14 353.15C388.46 349.67 392.68 346.37 392.68 346.37C392.68 346.37 404.27 347.88 405.01 345.23C405.33 341.69 389.99 337.5 387.86 337.25C385.67 337 367.69 339.53 365.85 341.37C364.01 343.2 366.64 357.32 366.64 357.32ZM306.71 347.23C310.29 347.68 317.84 346.54 323.16 343.06C328.48 339.58 333.55 334.51 333.55 334.51C333.55 334.51 345.13 335.6 344.88 334.51C344.58 333.47 330.07 327.4 327.88 327.16C325.74 326.91 307.71 329.45 305.87 331.29C304.03 333.11 306.71 347.23 306.71 347.23Z" fill="white"/>
<path fill-rule="evenodd" clip-rule="evenodd" d="M327.73 333.22C328.87 334.66 336.13 340.08 334.74 342.16C333.35 344.3 330.02 345.19 326.39 342.56C322.76 339.93 320.48 336.84 321.47 335.8C322.47 334.76 327.73 333.22 327.73 333.22Z" fill="white"/>
<path fill-rule="evenodd" clip-rule="evenodd" d="M173.24 261.61C162.21 266.08 164.84 287.35 169.86 302.61C174.83 317.87 226.36 353.89 241.62 357.87C256.88 361.8 316.06 343.31 316.06 343.31C320.08 335.11 316.61 326.41 309.3 328.3C309.3 328.3 251.61 337.34 242.96 327.36C236 319.35 184.92 256.89 173.24 261.61Z" fill="url(#paint4_linear_105_71)"/>
<path fill-rule="evenodd" clip-rule="evenodd" d="M219.95 233.98C201.91 270.3 164.84 258.18 156.1 223.45C147.35 188.76 145.07 158.8 175.48 153.53C208.52 147.81 238.04 197.65 219.95 233.98Z" fill="url(#paint5_linear_105_71)"/>
<path fill-rule="evenodd" clip-rule="evenodd" d="M163.5 234.78C166.93 245.56 165.88 274.48 165.88 274.48C165.88 274.48 214.68 288.69 213.19 282.13C207.23 255.54 204.2 232.29 198.73 227.42C194.21 223.44 183.08 236.81 163.5 234.78Z" fill="white"/>
<path fill-rule="evenodd" clip-rule="evenodd" d="M262.93 562.15C262.93 562.15 273.41 574.82 286.98 580.49C300.55 586.16 306.66 588.59 304.47 592.07C302.28 595.55 284.89 593.91 271.77 594.36C258.7 594.81 249.86 595.8 249.41 591.63C248.96 587.51 251.05 564.6 251.05 564.6L262.93 562.15Z" fill="black"/>
<path fill-rule="evenodd" clip-rule="evenodd" d="M243.85 463.56C244.35 477.77 249.17 584.34 249.17 584.34C252.54 588.23 274.82 580.24 276.38 574.83C276.38 574.83 285.94 456.2 282.21 455.65C278.54 455.16 243.85 463.56 243.85 463.56Z" fill="url(#paint6_linear_105_71)"/>
<path fill-rule="evenodd" clip-rule="evenodd" d="M377.43 562.65C377.43 562.65 387.92 575.32 401.43 581.04C415 586.71 421.11 589.09 418.92 592.62C416.73 596.1 399.34 594.41 386.27 594.86C373.15 595.31 364.31 596.3 363.86 592.18C363.41 588.01 365.5 565.1 365.5 565.1L377.43 562.65Z" fill="black"/>
<path fill-rule="evenodd" clip-rule="evenodd" d="M171.55 420.67C169.96 431.75 153.11 449.1 173.64 466.44C194.16 483.78 326.3 469.12 327.99 471.46C329.68 473.75 362.38 586.18 362.38 586.18C362.38 586.18 390.67 585.29 389.19 573.71C378.27 543.55 380.07 447.26 357.96 436.72C335.88 426.19 171.55 420.67 171.55 420.67Z" fill="url(#paint7_linear_105_71)"/>
<path fill-rule="evenodd" clip-rule="evenodd" d="M225.71 264.49C206.78 259.47 150.2 255.42 142.62 271.6C125.02 309.17 139.03 453.53 163.53 455.91C179.28 457.45 257.46 455.06 260.09 426.69C263.53 389.37 228.99 335.4 225.71 264.49Z" fill="#FEE302"/>
<path fill-rule="evenodd" clip-rule="evenodd" d="M141.11 382.29H160.29V477.5H141.11V382.29Z" fill="white"/>
<path fill-rule="evenodd" clip-rule="evenodd" d="M137.03 381.52H156.21V476.73H137.03V381.52Z" fill="black"/>
<path fill-rule="evenodd" clip-rule="evenodd" d="M225.71 264.49C214.68 268.96 217.26 290.28 222.28 305.54C227.3 320.75 278.83 356.77 294.09 360.75C309.35 364.68 370.37 356.98 370.37 356.98C374.35 348.78 370.92 340.08 363.56 341.97C363.56 341.97 304.03 340.23 295.38 330.24C288.48 322.23 237.34 259.77 225.71 264.49Z" fill="#FEE302"/>
<path fill-rule="evenodd" clip-rule="evenodd" d="M206.53 188.16C203 183.69 212.64 202.37 209.71 210.22C209.76 201.82 189.39 191.68 197.24 214.49C198.19 217.27 199.37 229.16 199.37 229.16C199.17 234.06 174.11 248.86 165.84 243.16C158.34 238.79 146.46 221.2 138.86 201.47C131.21 181.74 144.62 172.1 144.62 172.1C144.62 172.1 142.78 167.08 148.84 157.64C153.56 150.19 223.93 135.43 220.15 167.92C219.35 174.64 212.3 180.46 206.53 188.16Z" fill="black"/>
<path fill-rule="evenodd" clip-rule="evenodd" d="M123.81 304.7H196.8C202.08 304.7 206.44 310.56 206.44 317.72V372.18C206.44 379.34 202.08 385.2 196.8 385.2H123.81C118.49 385.2 114.14 379.34 114.14 372.18V317.72C114.14 310.56 118.49 304.7 123.81 304.7Z" fill="white"/>
<path fill-rule="evenodd" clip-rule="evenodd" d="M116.64 304.86H189.63C194.91 304.86 199.27 310.72 199.27 317.88V372.34C199.27 379.5 194.91 385.36 189.63 385.36H116.64C111.32 385.36 106.97 379.5 106.97 372.34V317.88C106.96 310.72 111.32 304.86 116.64 304.86ZM206.46 481.65H223.65V578.7H206.46V481.65Z" fill="black"/>
<path fill-rule="evenodd" clip-rule="evenodd" d="M153.73 576.61H278.61V583.42H153.73V576.61Z" fill="black"/>
<path fill-rule="evenodd" clip-rule="evenodd" d="M275.98 594.25C281.05 594.25 285.12 590.17 285.12 585.16C285.12 580.09 281.05 576.02 275.98 576.02C270.96 576.02 266.89 580.09 266.89 585.16C266.88 590.18 270.96 594.25 275.98 594.25ZM213.95 594.05C219.02 594.05 223.09 589.97 223.09 584.96C223.09 579.89 219.01 575.82 213.95 575.82C208.93 575.82 204.86 579.89 204.86 584.96C204.85 589.97 208.93 594.05 213.95 594.05ZM154.13 594.25C159.15 594.25 163.27 590.17 163.27 585.16C163.27 580.09 159.15 576.02 154.13 576.02C149.11 576.02 144.99 580.09 144.99 585.16C144.99 590.18 149.11 594.25 154.13 594.25ZM134.43 466.44H295.63C301.74 466.44 306.71 471.41 306.71 477.47C306.71 483.58 301.74 488.55 295.63 488.55H134.43C128.37 488.55 123.4 483.58 123.4 477.47C123.4 471.41 128.37 466.44 134.43 466.44Z" fill="black"/>
<path fill-rule="evenodd" clip-rule="evenodd" d="M161.92 261.69C162.17 258.51 164.42 249.56 164.42 249.56C164.42 249.56 200.99 247.07 209.69 251.15C211.05 251.79 219.5 264.24 219.5 264.24C196.44 260.06 176.71 259.86 161.92 261.69Z" fill="#BCD8FA"/>
<path fill-rule="evenodd" clip-rule="evenodd" d="M347.16 272.89H453.01L452.34 276.18L346.46 276.38L347.16 272.89ZM437.61 284.33C437.61 284.83 437.21 285.23 436.71 285.23H353.02C352.52 285.23 352.12 284.83 352.12 284.33C352.12 283.83 352.52 283.43 353.02 283.43H436.71C437.21 283.43 437.61 283.83 437.61 284.33ZM421.17 289.44C421.17 289.94 420.84 290.34 420.43 290.34H351.82C351.41 290.34 351.08 289.94 351.08 289.44C351.08 288.94 351.41 288.54 351.82 288.54H420.43C420.84 288.54 421.17 288.95 421.17 289.44ZM420.15 295.76C420.15 296.26 419.82 296.66 419.41 296.66H350.8C350.39 296.66 350.06 296.26 350.06 295.76C350.06 295.26 350.39 294.86 350.8 294.86H419.41C419.82 294.86 420.15 295.26 420.15 295.76ZM434.2 301.29C434.2 301.79 433.8 302.19 433.3 302.19H349.52C349.02 302.19 348.62 301.79 348.62 301.29C348.62 300.79 349.02 300.39 349.52 300.39H433.3C433.8 300.39 434.2 300.8 434.2 301.29ZM431.1 314.46C431.1 314.96 430.7 315.36 430.2 315.36H346.42C345.92 315.36 345.52 314.96 345.52 314.46C345.52 313.96 345.92 313.56 346.42 313.56H430.2C430.69 313.56 431.1 313.96 431.1 314.46ZM400.77 307.54C400.77 308.04 400.52 308.44 400.21 308.44H348.06C347.75 308.44 347.5 308.04 347.5 307.54C347.5 307.04 347.75 306.64 348.06 306.64H400.21C400.52 306.64 400.77 307.04 400.77 307.54ZM383.34 320.2C383.34 320.7 383.16 321.1 382.94 321.1H345.29C345.07 321.1 344.89 320.7 344.89 320.2C344.89 319.7 345.07 319.3 345.29 319.3H382.93C383.16 319.3 383.34 319.7 383.34 320.2ZM412.08 327.14C412.08 327.64 411.76 328.04 411.36 328.04H343.96C343.56 328.04 343.24 327.64 343.24 327.14C343.24 326.64 343.57 326.24 343.96 326.24H411.36C411.75 326.24 412.08 326.64 412.08 327.14Z" fill="#1E8191"/>
<path d="M311.87 103.43C311.87 104.16 311.28 104.75 310.55 104.75C309.82 104.75 309.23 104.16 309.23 103.43C309.23 102.7 309.82 102.11 310.55 102.11C311.28 102.11 311.87 102.7 311.87 103.43ZM406.57 185.28C406.57 186.01 405.98 186.6 405.25 186.6C404.52 186.6 403.92 186.01 403.92 185.28C403.92 184.55 404.51 183.96 405.25 183.96C405.99 183.96 406.57 184.54 406.57 185.28ZM268.21 114.07C268.21 114.8 267.62 115.39 266.89 115.39C266.16 115.39 265.57 114.8 265.57 114.07C265.57 113.34 266.16 112.74 266.89 112.74C267.62 112.75 268.21 113.34 268.21 114.07ZM161.61 112.75C161.61 113.48 161.02 114.07 160.29 114.07C159.56 114.07 158.97 113.48 158.97 112.75C158.97 112.02 159.56 111.43 160.29 111.43C161.02 111.42 161.61 112.02 161.61 112.75ZM536.97 270.26C536.97 270.99 536.38 271.58 535.65 271.58C534.92 271.58 534.32 270.99 534.32 270.26C534.32 269.53 534.91 268.94 535.65 268.94C536.39 268.94 536.97 269.53 536.97 270.26ZM541.32 182.01L542.73 184.87L545.88 185.32L543.6 187.55L544.14 190.69L541.32 189.21L538.5 190.69L539.03 187.55L536.75 185.32L539.91 184.87L541.32 182.01ZM214.63 65.98L216.39 69.55L220.33 70.12L217.48 72.9L218.15 76.83L214.63 74.97L211.1 76.83L211.77 72.9L208.92 70.12L212.86 69.55L214.63 65.98ZM609.58 240.8L611.35 244.37L615.29 244.94L612.44 247.72L613.11 251.65L609.58 249.79L606.06 251.65L606.73 247.72L603.88 244.94L607.82 244.37L609.58 240.8Z" fill="white"/>
<path d="M89.51 234.86C92.0892 234.86 94.18 232.769 94.18 230.19C94.18 227.611 92.0892 225.52 89.51 225.52C86.9309 225.52 84.84 227.611 84.84 230.19C84.84 232.769 86.9309 234.86 89.51 234.86Z" fill="white"/>
<path d="M443.87 131.02C461.97 149.2 491.37 149.28 509.56 131.19C527.74 113.1 527.82 83.69 509.73 65.51C491.64 47.33 462.23 47.25 444.05 65.34C425.86 83.43 425.78 112.84 443.87 131.02Z" fill="white"/>
<path d="M6.34998 349.06L332.3 346.33L339.52 346.6L438.15 346.33L453.01 272.89L56.42 68.52" fill="url(#paint8_linear_105_71)"/>
<path opacity="0.2" d="M422.56 110.95C418.83 110.95 415.34 111.97 412.36 113.75C411.65 103.35 402.99 95.14 392.42 95.14C389.84 95.14 387.38 95.63 385.12 96.52C382.24 86.88 373.31 79.85 362.73 79.85C349.83 79.85 339.36 90.31 339.36 103.22C339.36 103.55 339.37 103.88 339.39 104.2H339.36C326.46 104.2 315.99 114.66 315.99 127.57C315.99 140.47 326.45 150.94 339.36 150.94C340.17 150.94 340.96 150.9 341.75 150.82H420.38C421.1 150.9 421.82 150.94 422.56 150.94C433.6 150.94 442.55 141.99 442.55 130.95C442.55 119.9 433.6 110.95 422.56 110.95Z" fill="url(#paint9_linear_105_71)"/>
<defs>
<linearGradient id="paint0_linear_105_71" x1="-458.5" y1="1425" x2="529" y2="105" gradientUnits="userSpaceOnUse">
<stop stop-color="#FEE302"/>
<stop offset="1"/>
</linearGradient>
<linearGradient id="paint1_linear_105_71" x1="564.088" y1="484.084" x2="567.212" y2="484.084" gradientUnits="userSpaceOnUse">
<stop offset="0.041" stop-color="#100060"/>
<stop offset="1" stop-color="#090E96"/>
</linearGradient>
<linearGradient id="paint2_linear_105_71" x1="330.368" y1="313.561" x2="461.108" y2="313.561" gradientUnits="userSpaceOnUse">
<stop stop-color="#A1BAFF"/>
<stop offset="0.433" stop-color="white"/>
</linearGradient>
<linearGradient id="paint3_linear_105_71" x1="410.721" y1="354.186" x2="442.473" y2="354.186" gradientUnits="userSpaceOnUse">
<stop stop-color="#A1BAFF"/>
<stop offset="0.433" stop-color="white"/>
</linearGradient>
<linearGradient id="paint4_linear_105_71" x1="165.527" y1="309.881" x2="317.754" y2="309.881" gradientUnits="userSpaceOnUse">
<stop stop-color="#311341"/>
<stop offset="0.23" stop-color="#3113C2"/>
<stop offset="0.348" stop-color="#2F18C5"/>
<stop offset="0.493" stop-color="#2927CC"/>
<stop offset="0.652" stop-color="#1F40D8"/>
<stop offset="0.822" stop-color="#1263E9"/>
<stop offset="0.998" stop-color="#008FFF"/>
<stop offset="1" stop-color="#0090FF"/>
</linearGradient>
<linearGradient id="paint5_linear_105_71" x1="183.124" y1="191.16" x2="210.105" y2="262.796" gradientUnits="userSpaceOnUse">
<stop stop-color="#A1BAFF"/>
<stop offset="0.433" stop-color="white"/>
</linearGradient>
<linearGradient id="paint6_linear_105_71" x1="263.759" y1="469.88" x2="268.411" y2="576.868" gradientUnits="userSpaceOnUse">
<stop offset="0.041" stop-color="#100022"/>
<stop offset="1"/>
</linearGradient>
<linearGradient id="paint7_linear_105_71" x1="257.075" y1="441.239" x2="381.127" y2="582.658" gradientUnits="userSpaceOnUse">
<stop offset="0.041"/>
<stop offset="1"/>
</linearGradient>
<linearGradient id="paint8_linear_105_71" x1="35.714" y1="209.635" x2="550.241" y2="309.649" gradientUnits="userSpaceOnUse">
<stop offset="0.004" stop-color="#7633FF" stop-opacity="0"/>
<stop offset="0.092" stop-color="#7051FF" stop-opacity="0.0882"/>
<stop offset="0.263" stop-color="#6685FF" stop-opacity="0.2596"/>
<stop offset="0.43" stop-color="#5EB1FF" stop-opacity="0.4279"/>
<stop offset="0.591" stop-color="#57D3FF" stop-opacity="0.5893"/>
<stop offset="0.743" stop-color="#53EBFF" stop-opacity="0.7421"/>
<stop offset="0.883" stop-color="#50FAFF" stop-opacity="0.8829"/>
<stop offset="1" stop-color="#4FFFFF"/>
</linearGradient>
<linearGradient id="paint9_linear_105_71" x1="315.994" y1="115.397" x2="442.553" y2="115.397" gradientUnits="userSpaceOnUse">
<stop stop-color="#A1BAFF"/>
<stop offset="0.089" stop-color="#ACC2FF"/>
<stop offset="0.499" stop-color="#D9E3FF"/>
<stop offset="0.816" stop-color="#F5F7FF"/>
<stop offset="1" stop-color="white"/>
</linearGradient>
</defs>
</svg>
