<svg width="83" height="83" viewBox="0 0 83 83" fill="none" xmlns="http://www.w3.org/2000/svg">
<path d="M41.2656 42.7565C34.8522 42.7637 28.7035 45.3146 24.1684 49.8496C19.6334 54.3846 17.0825 60.5333 17.0754 66.9468V81.1764C17.0754 81.5538 17.2253 81.9157 17.4922 82.1825C17.759 82.4494 18.1209 82.5993 18.4983 82.5993H64.033C64.4103 82.5993 64.7723 82.4494 65.0391 82.1825C65.306 81.9157 65.4559 81.5538 65.4559 81.1764V66.9468C65.4488 60.5333 62.8978 54.3846 58.3628 49.8496C53.8278 45.3146 47.6791 42.7637 41.2656 42.7565Z" fill="#FEE302"/>
<path d="M41.2656 41.3336C49.1244 41.3336 55.4952 34.9628 55.4952 27.104C55.4952 19.2452 49.1244 12.8745 41.2656 12.8745C33.4069 12.8745 27.0361 19.2452 27.0361 27.104C27.0361 34.9628 33.4069 41.3336 41.2656 41.3336Z" fill="#FEE302"/>
<path d="M70.4519 0.494749C70.182 0.25509 69.8312 0.126922 69.4704 0.136194C69.1096 0.145465 68.7659 0.291483 68.5087 0.544685C68.2515 0.797887 68.1001 1.13935 68.0852 1.49995C68.0703 1.86055 68.193 2.21334 68.4284 2.48689C75.6417 9.80598 79.6853 19.6695 79.6853 29.9457C79.6853 40.2219 75.6417 50.0854 68.4284 57.4045C68.2935 57.5366 68.1862 57.6942 68.1127 57.8682C68.0393 58.0421 68.0013 58.229 68.0008 58.4178C68.0003 58.6066 68.0374 58.7937 68.1099 58.968C68.1825 59.1424 68.289 59.3005 68.4233 59.4333C68.5575 59.5661 68.7169 59.6708 68.892 59.7413C69.0672 59.8119 69.2546 59.8469 69.4435 59.8443C69.6323 59.8416 69.8187 59.8015 69.9918 59.7261C70.1649 59.6507 70.3213 59.5416 70.4519 59.4052C78.1921 51.5535 82.5312 40.9711 82.5312 29.9457C82.5312 18.9203 78.1921 8.33786 70.4519 0.486211V0.494749ZM2.84578 29.95C2.813 19.666 6.86149 9.78918 14.1028 2.48689C14.2485 2.35747 14.3661 2.19951 14.4482 2.02278C14.5304 1.84605 14.5754 1.65433 14.5804 1.45951C14.5854 1.26469 14.5503 1.07091 14.4773 0.8902C14.4044 0.709487 14.2951 0.545689 14.1562 0.408961C14.0173 0.272233 13.8518 0.16549 13.67 0.0953505C13.4882 0.0252106 13.2939 -0.00683086 13.0992 0.00121248C12.9044 0.00925583 12.7134 0.0572124 12.538 0.142109C12.3626 0.227006 12.2065 0.347033 12.0793 0.494749C4.33915 8.34639 0 18.9288 0 29.9542C0 40.9796 4.33915 51.5621 12.0793 59.4137C12.2099 59.5501 12.3663 59.6592 12.5394 59.7346C12.7125 59.81 12.899 59.8502 13.0878 59.8528C13.2766 59.8554 13.464 59.8204 13.6392 59.7499C13.8143 59.6793 13.9737 59.5746 14.108 59.4418C14.2423 59.3091 14.3488 59.1509 14.4213 58.9766C14.4938 58.8022 14.5309 58.6152 14.5305 58.4263C14.53 58.2375 14.4919 58.0507 14.4185 57.8767C14.3451 57.7027 14.2377 57.5451 14.1028 57.413C6.86149 50.1107 2.813 40.2339 2.84578 29.95Z" fill="#FEE302"/>
<path d="M72.5707 29.95C72.5846 34.0988 71.7811 38.2098 70.2061 42.0482C68.631 45.8865 66.3153 49.377 63.3912 52.3203C63.1257 52.5886 62.9776 52.9514 62.9796 53.3289C62.9816 53.7063 63.1335 54.0675 63.4018 54.333C63.6702 54.5985 64.033 54.7466 64.4104 54.7446C64.7879 54.7426 65.1491 54.5907 65.4146 54.3224C71.8232 47.8292 75.4165 39.0731 75.4165 29.95C75.4165 20.8268 71.8232 12.0707 65.4146 5.57755C65.1491 5.30922 64.7879 5.15736 64.4104 5.15535C64.033 5.15335 63.6702 5.30138 63.4018 5.56688C63.1335 5.83237 62.9816 6.19359 62.9796 6.57105C62.9776 6.94852 63.1257 7.31132 63.3912 7.57965C66.3153 10.5229 68.631 14.0134 70.2061 17.8517C71.7811 21.6901 72.5846 25.8011 72.5707 29.95ZM17.1166 54.3224C17.3821 54.5907 17.7433 54.7426 18.1208 54.7446C18.4983 54.7466 18.8611 54.5985 19.1294 54.333C19.3977 54.0675 19.5496 53.7063 19.5516 53.3289C19.5536 52.9514 19.4055 52.5886 19.1401 52.3203C13.2582 46.3603 9.96031 38.3236 9.96031 29.95C9.96031 21.5763 13.2582 13.5396 19.1401 7.57965C19.4055 7.31132 19.5536 6.94852 19.5516 6.57105C19.5496 6.19359 19.3977 5.83237 19.1294 5.56688C18.8611 5.30138 18.4983 5.15335 18.1208 5.15535C17.7433 5.15736 17.3821 5.30922 17.1166 5.57755C10.708 12.0707 7.11469 20.8268 7.11469 29.95C7.11469 39.0731 10.708 47.8292 17.1166 54.3224Z" fill="#FEE302"/>
<path d="M58.3809 49.2594C58.6495 49.5245 59.0123 49.6721 59.3896 49.6697C59.7669 49.6673 60.1279 49.5151 60.393 49.2466C65.4609 44.1025 68.3017 37.1711 68.3017 29.9499C68.3017 22.7287 65.4609 15.7974 60.393 10.6532C60.1236 10.411 59.7719 10.2808 59.4097 10.2889C59.0475 10.2971 58.7021 10.4431 58.4439 10.6972C58.1856 10.9513 58.034 11.2943 58.0199 11.6563C58.0059 12.0183 58.1304 12.372 58.3681 12.6453C62.9099 17.2571 65.4557 23.4701 65.4557 29.9428C65.4557 36.4155 62.9099 42.6285 58.3681 47.2403C58.2358 47.3734 58.1311 47.5313 58.0601 47.705C57.9891 47.8788 57.9531 48.0648 57.9543 48.2525C57.9555 48.4402 57.9938 48.6258 58.067 48.7986C58.1403 48.9714 58.2469 49.128 58.3809 49.2594ZM22.1382 49.2466C22.2687 49.3831 22.425 49.4923 22.5981 49.5677C22.7711 49.6432 22.9575 49.6835 23.1463 49.6862C23.335 49.6889 23.5225 49.6541 23.6977 49.5836C23.8728 49.5132 24.0322 49.4086 24.1666 49.2759C24.3009 49.1433 24.4075 48.9852 24.4802 48.811C24.5529 48.6367 24.5901 48.4497 24.5898 48.2609C24.5895 48.0721 24.5516 47.8853 24.4783 47.7113C24.405 47.5373 24.2979 47.3796 24.1631 47.2474C19.6213 42.6357 17.0755 36.4226 17.0755 29.9499C17.0755 23.4772 19.6213 17.2642 24.1631 12.6525C24.4008 12.3791 24.5254 12.0254 24.5113 11.6634C24.4972 11.3014 24.3456 10.9584 24.0874 10.7043C23.8291 10.4502 23.4837 10.3042 23.1215 10.2961C22.7593 10.2879 22.4077 10.4182 22.1382 10.6603C17.0703 15.8045 14.2296 22.7358 14.2296 29.957C14.2296 37.1782 17.0703 44.1096 22.1382 49.2537V49.2466Z" fill="#FEE302"/>
</svg>
