<svg width="194" height="43" viewBox="0 0 194 43" fill="none" xmlns="http://www.w3.org/2000/svg">
<path d="M0 7.84766V0.519903H3.08812C3.86975 0.519903 4.55717 0.673437 5.15036 0.980505C5.75054 1.28757 6.21463 1.71677 6.54264 2.2681C6.87762 2.81942 7.04511 3.45798 7.04511 4.18378C7.04511 4.90958 6.87762 5.54814 6.54264 6.09946C6.21463 6.65079 5.75054 7.07999 5.15036 7.38706C4.55717 7.69412 3.86975 7.84766 3.08812 7.84766H0ZM1.04682 6.93692H3.02532C3.63247 6.93692 4.15588 6.82177 4.59555 6.59147C5.04219 6.36117 5.38764 6.04014 5.6319 5.62839C5.87616 5.20967 5.99829 4.72813 5.99829 4.18378C5.99829 3.63245 5.87616 3.15092 5.6319 2.73917C5.38764 2.32742 5.04219 2.00639 4.59555 1.77609C4.15588 1.54579 3.63247 1.43064 3.02532 1.43064H1.04682V6.93692Z" fill="#FEE302"/>
<path d="M8.64855 7.84766V0.519903H9.69537V7.84766H8.64855Z" fill="#FEE302"/>
<path d="M15.1972 7.9314C14.6319 7.9314 14.112 7.84068 13.6374 7.65923C13.1628 7.4708 12.7511 7.2091 12.4021 6.87411C12.0532 6.53215 11.781 6.13436 11.5856 5.68074C11.3902 5.22711 11.2925 4.72813 11.2925 4.18378C11.2925 3.63943 11.3902 3.14045 11.5856 2.68682C11.781 2.2332 12.0532 1.8389 12.4021 1.50392C12.7581 1.16195 13.1733 0.900248 13.6479 0.718799C14.1224 0.530371 14.6458 0.436157 15.2181 0.436157C15.7973 0.436157 16.3277 0.530371 16.8093 0.718799C17.2908 0.907227 17.6991 1.18987 18.034 1.56672L17.385 2.21575C17.0849 1.92264 16.7569 1.70979 16.401 1.57719C16.0521 1.43762 15.6717 1.36783 15.26 1.36783C14.8412 1.36783 14.4504 1.43762 14.0875 1.57719C13.7316 1.71677 13.421 1.91218 13.1559 2.16341C12.8976 2.41465 12.6953 2.71474 12.5487 3.06368C12.4091 3.40564 12.3393 3.77901 12.3393 4.18378C12.3393 4.58157 12.4091 4.95494 12.5487 5.30388C12.6953 5.64584 12.8976 5.94593 13.1559 6.20415C13.421 6.45538 13.7316 6.65079 14.0875 6.79037C14.4434 6.92994 14.8308 6.99973 15.2495 6.99973C15.6403 6.99973 16.0137 6.94041 16.3696 6.82177C16.7325 6.69615 17.0675 6.49028 17.3745 6.20415L17.9712 6.99973C17.6083 7.3068 17.1826 7.54059 16.6941 7.7011C16.2126 7.85464 15.7136 7.9314 15.1972 7.9314ZM16.9663 6.86365V4.14191H17.9712V6.99973L16.9663 6.86365Z" fill="#FEE302"/>
<path d="M19.9755 7.84766V0.519903H21.0223V7.84766H19.9755Z" fill="#FEE302"/>
<path d="M24.6712 7.84766V1.43064H22.1589V0.519903H28.2199V1.43064H25.7076V7.84766H24.6712Z" fill="#FEE302"/>
<path d="M27.8824 7.84766L31.2009 0.519903H32.2372L35.5661 7.84766H34.4669L31.5044 1.10612H31.9232L28.9607 7.84766H27.8824ZM29.2956 6.01572L29.5783 5.17826H33.7028L34.0063 6.01572H29.2956Z" fill="#FEE302"/>
<path d="M36.6592 7.84766V0.519903H37.706V6.93692H41.6735V7.84766H36.6592Z" fill="#FEE302"/>
<path d="M45.686 7.84766V0.519903H46.5444L49.8314 6.05759H49.3708L52.616 0.519903H53.4744L53.4848 7.84766H52.4799L52.4694 2.1006H52.7102L49.821 6.95786H49.3394L46.4293 2.1006H46.691V7.84766H45.686Z" fill="#FEE302"/>
<path d="M56.6366 3.68131H60.4051V4.5711H56.6366V3.68131ZM56.7308 6.93692H61.0018V7.84766H55.684V0.519903H60.8553V1.43064H56.7308V6.93692Z" fill="#FEE302"/>
<path d="M62.6969 7.84766V0.519903H65.785C66.5666 0.519903 67.254 0.673437 67.8472 0.980505C68.4474 1.28757 68.9115 1.71677 69.2395 2.2681C69.5745 2.81942 69.742 3.45798 69.742 4.18378C69.742 4.90958 69.5745 5.54814 69.2395 6.09946C68.9115 6.65079 68.4474 7.07999 67.8472 7.38706C67.254 7.69412 66.5666 7.84766 65.785 7.84766H62.6969ZM63.7437 6.93692H65.7222C66.3293 6.93692 66.8528 6.82177 67.2924 6.59147C67.7391 6.36117 68.0845 6.04014 68.3288 5.62839C68.573 5.20967 68.6952 4.72813 68.6952 4.18378C68.6952 3.63245 68.573 3.15092 68.3288 2.73917C68.0845 2.32742 67.7391 2.00639 67.2924 1.77609C66.8528 1.54579 66.3293 1.43064 65.7222 1.43064H63.7437V6.93692Z" fill="#FEE302"/>
<path d="M71.3454 7.84766V0.519903H72.3922V7.84766H71.3454Z" fill="#FEE302"/>
<path d="M73.4764 7.84766L76.7949 0.519903H77.8312L81.1601 7.84766H80.0609L77.0984 1.10612H77.5172L74.5547 7.84766H73.4764ZM74.8896 6.01572L75.1723 5.17826H79.2968L79.6003 6.01572H74.8896Z" fill="#FEE302"/>
<path fill-rule="evenodd" clip-rule="evenodd" d="M101.193 8.28734L96.3947 0L86.3628 8.28734H101.193ZM54.7611 11.5535L62.717 34.4579H71.929L75.5425 23.8582L79.0055 34.4579H88.2176L97.7191 8.28735H93.5737H89.4283L83.8351 23.9916L79.8011 11.5535H71.7615L67.6463 23.6538L63.7219 11.5535H54.7611ZM16.2603 11.1348C18.019 11.1348 19.6102 11.4977 21.0338 12.2234C22.4575 12.9213 23.5741 14.024 24.3837 15.5314C25.2211 17.0388 25.6399 18.9929 25.6399 21.3936V34.4579H16.1766V23.0266C16.1766 21.603 15.9253 20.598 15.4229 20.0118C14.9204 19.3977 14.2365 19.0906 13.3711 19.0906C12.729 19.0906 12.1289 19.2441 11.5706 19.5512C11.0402 19.8304 10.6075 20.3049 10.2725 20.9749C9.96544 21.6448 9.8119 22.5521 9.8119 23.6966V34.4579H0.348633V11.5535H9.3513V13.8154C9.89282 13.2719 10.493 12.811 11.1518 12.4328C12.6872 11.5674 14.39 11.1348 16.2603 11.1348ZM42.8041 34.8767C40.0126 34.8767 37.57 34.3602 35.4764 33.3274C33.4107 32.2945 31.8055 30.8848 30.661 29.0982C29.5165 27.2837 28.9442 25.2459 28.9442 22.9848C28.9442 20.6678 29.5025 18.616 30.6191 16.8295C31.7636 15.0429 33.3129 13.6471 35.267 12.6422C37.249 11.6372 39.4683 11.1348 41.9248 11.1348C44.1859 11.1348 46.2656 11.5814 48.1639 12.4747C50.09 13.368 51.6254 14.6939 52.7699 16.4526C53.9423 18.2113 54.5285 20.3887 54.5285 22.9848C54.5285 23.3198 54.5146 23.6966 54.4867 24.1153C54.4587 24.5062 54.4308 24.8691 54.4029 25.204H38.5141C38.5903 25.4093 38.6804 25.6047 38.7843 25.7903C39.1751 26.4881 39.7335 27.0185 40.4592 27.3814C41.185 27.7164 42.0644 27.8839 43.0972 27.8839C44.158 27.8839 45.0234 27.7443 45.6934 27.4652C46.3912 27.186 47.117 26.7673 47.8708 26.209L52.8117 31.1919C51.6951 32.3922 50.3133 33.3134 48.6663 33.9555C47.0472 34.5696 45.0932 34.8767 42.8041 34.8767ZM38.6587 19.5931C38.5023 19.9058 38.3858 20.2548 38.309 20.6399H45.698C45.6142 20.2548 45.4871 19.9058 45.3165 19.5931C45.0094 18.951 44.5767 18.4625 44.0184 18.1275C43.4601 17.7646 42.7902 17.5832 42.0085 17.5832C41.2269 17.5832 40.543 17.7646 39.9568 18.1275C39.3985 18.4625 38.9658 18.951 38.6587 19.5931ZM109.025 43C106.764 43 104.642 42.7627 102.66 42.2882C100.678 41.8136 98.9753 41.1018 97.5516 40.1527L100.734 33.7042C101.627 34.4021 102.758 34.9465 104.126 35.3373C105.521 35.756 106.833 35.9654 108.062 35.9654C110.016 35.9654 111.412 35.5466 112.249 34.7092C113.086 33.8996 113.505 32.7272 113.505 31.1919V30.7664C113.078 31.2616 112.59 31.6826 112.04 32.0293C110.783 32.8109 109.164 33.2018 107.182 33.2018C105.256 33.2018 103.456 32.7551 101.781 31.8618C100.106 30.9406 98.752 29.6565 97.7191 28.0095C96.6862 26.3625 96.1698 24.4085 96.1698 22.1473C96.1698 19.8862 96.6862 17.9321 97.7191 16.2851C98.752 14.6381 100.106 13.368 101.781 12.4747C103.456 11.5814 105.256 11.1348 107.182 11.1348C109.164 11.1348 110.783 11.5256 112.04 12.3072C112.799 12.7693 113.441 13.3826 113.966 14.1471V11.5535H122.968V29.8938C122.968 34.3323 121.74 37.6263 119.284 39.7758C116.827 41.9253 113.407 43 109.025 43ZM109.695 25.8321C110.448 25.8321 111.118 25.6786 111.705 25.3715C112.291 25.0645 112.751 24.6318 113.086 24.0735C113.421 23.5152 113.589 22.8731 113.589 22.1473C113.589 21.3936 113.421 20.7516 113.086 20.2212C112.751 19.6629 112.291 19.2441 111.705 18.965C111.118 18.6579 110.448 18.5044 109.695 18.5044C108.969 18.5044 108.299 18.6579 107.685 18.965C107.099 19.2441 106.624 19.6629 106.261 20.2212C105.926 20.7516 105.759 21.3936 105.759 22.1473C105.759 22.8731 105.926 23.5152 106.261 24.0735C106.624 24.6318 107.099 25.0645 107.685 25.3715C108.299 25.6786 108.969 25.8321 109.695 25.8321ZM132.471 33.3274C134.565 34.3602 137.007 34.8767 139.799 34.8767C142.088 34.8767 144.042 34.5696 145.661 33.9555C147.308 33.3134 148.69 32.3922 149.806 31.1919L144.865 26.209C144.112 26.7673 143.386 27.186 142.688 27.4652C142.018 27.7443 141.153 27.8839 140.092 27.8839C139.059 27.8839 138.18 27.7164 137.454 27.3814C136.728 27.0185 136.17 26.4881 135.779 25.7903C135.675 25.6047 135.585 25.4093 135.509 25.204H151.398C151.425 24.8691 151.453 24.5062 151.481 24.1153C151.509 23.6966 151.523 23.3198 151.523 22.9848C151.523 20.3887 150.937 18.2113 149.764 16.4526C148.62 14.6939 147.085 13.368 145.158 12.4747C143.26 11.5814 141.181 11.1348 138.919 11.1348C136.463 11.1348 134.244 11.6372 132.262 12.6422C130.308 13.6471 128.758 15.0429 127.614 16.8295C126.497 18.616 125.939 20.6678 125.939 22.9848C125.939 25.2459 126.511 27.2837 127.656 29.0982C128.8 30.8848 130.405 32.2945 132.471 33.3274ZM135.304 20.6399C135.38 20.2548 135.497 19.9058 135.653 19.5931C135.96 18.951 136.393 18.4625 136.951 18.1275C137.538 17.7646 138.222 17.5832 139.003 17.5832C139.785 17.5832 140.455 17.7646 141.013 18.1275C141.571 18.4625 142.004 18.951 142.311 19.5931C142.482 19.9058 142.609 20.2548 142.693 20.6399H135.304ZM170.421 11.1348C172.18 11.1348 173.771 11.4977 175.195 12.2234C176.618 12.9213 177.735 14.024 178.545 15.5314C179.382 17.0388 179.801 18.9929 179.801 21.3936V34.4579H170.337V23.0266C170.337 21.603 170.086 20.598 169.584 20.0118C169.081 19.3977 168.397 19.0906 167.532 19.0906C166.89 19.0906 166.29 19.2441 165.731 19.5512C165.201 19.8304 164.768 20.3049 164.433 20.9749C164.126 21.6448 163.973 22.5521 163.973 23.6966V34.4579H154.51V11.5535H163.512V13.8154C164.054 13.2719 164.654 12.811 165.313 12.4328C166.848 11.5674 168.551 11.1348 170.421 11.1348ZM184.245 33.3693C185.306 34.3742 186.618 34.8767 188.182 34.8767C189.745 34.8767 191.057 34.3742 192.118 33.3693C193.178 32.3364 193.709 31.0244 193.709 29.4332C193.709 27.8141 193.178 26.5161 192.118 25.539C191.057 24.562 189.745 24.0735 188.182 24.0735C186.618 24.0735 185.306 24.562 184.245 25.539C183.185 26.5161 182.654 27.8141 182.654 29.4332C182.654 31.0244 183.185 32.3364 184.245 33.3693Z" fill="#FFFAFA"/>
<path d="M194 29.5C194 32.5376 191.314 35 188 35C184.686 35 182 32.5376 182 29.5C182 26.4624 184.686 24 188 24C191.314 24 194 26.4624 194 29.5Z" fill="#FEE302"/>
</svg>
