<svg width="148" height="239" viewBox="0 0 148 239" fill="none" xmlns="http://www.w3.org/2000/svg">
<g filter="url(#filter0_d_220_109)">
<rect x="6" y="4" width="123.083" height="214.255" rx="18" fill="url(#paint0_linear_220_109)"/>
</g>
<rect opacity="0.5" x="15.1172" y="22.2345" width="104.848" height="79.7759" rx="8" fill="#B3B3B3" fill-opacity="0.5"/>
<rect opacity="0.5" x="15.1172" y="161.273" width="104.848" height="41.0276" rx="8" fill="#B3B3B3" fill-opacity="0.5"/>
<rect opacity="0.5" x="15.1172" y="111.128" width="104.848" height="41.0276" rx="8" fill="#B3B3B3" fill-opacity="0.5"/>
<rect opacity="0.5" x="24.9941" y="41.2288" width="87.3736" height="6.07817" fill="#C8C8C8"/>
<rect opacity="0.5" x="24.9941" y="117.206" width="87.3736" height="3.79885" fill="#C8C8C8"/>
<rect opacity="0.5" x="24.9941" y="168.11" width="87.3736" height="3.79885" fill="#C8C8C8"/>
<rect opacity="0.5" x="30.313" y="58.7035" width="76.7368" height="6.07817" fill="#838383"/>
<rect opacity="0.5" x="30.313" y="128.602" width="76.7368" height="3.79885" fill="#838383"/>
<rect opacity="0.5" x="30.313" y="179.507" width="76.7368" height="3.79885" fill="#838383"/>
<rect opacity="0.5" x="34.1113" y="75.4185" width="62.3012" height="6.07817" fill="#838383"/>
<rect opacity="0.5" x="34.1113" y="139.999" width="62.3012" height="3.79885" fill="#838383"/>
<rect opacity="0.5" x="34.1113" y="190.904" width="62.3012" height="3.79885" fill="#838383"/>
<defs>
<filter id="filter0_d_220_109" x="0" y="0" width="147.083" height="238.255" filterUnits="userSpaceOnUse" color-interpolation-filters="sRGB">
<feFlood flood-opacity="0" result="BackgroundImageFix"/>
<feColorMatrix in="SourceAlpha" type="matrix" values="0 0 0 0 0 0 0 0 0 0 0 0 0 0 0 0 0 0 127 0" result="hardAlpha"/>
<feOffset dx="6" dy="8"/>
<feGaussianBlur stdDeviation="6"/>
<feComposite in2="hardAlpha" operator="out"/>
<feColorMatrix type="matrix" values="0 0 0 0 0 0 0 0 0 0 0 0 0 0 0 0 0 0 0.5 0"/>
<feBlend mode="normal" in2="BackgroundImageFix" result="effect1_dropShadow_220_109"/>
<feBlend mode="normal" in="SourceGraphic" in2="effect1_dropShadow_220_109" result="shape"/>
</filter>
<linearGradient id="paint0_linear_220_109" x1="6" y1="4" x2="168.757" y2="47.0564" gradientUnits="userSpaceOnUse">
<stop stop-color="#6E9AAC"/>
<stop offset="1" stop-color="#083248"/>
</linearGradient>
</defs>
</svg>
