<svg width="262" height="49" viewBox="0 0 262 49" fill="none" xmlns="http://www.w3.org/2000/svg">
<path d="M40.4402 0.419983H52.4094L46.6019 47.6593H33.4995L20.9638 26.483C18.9099 23.1543 17.1393 19.5423 15.1562 14.7972V16.9219C15.1562 20.463 15.0146 22.9419 14.6605 25.8456L11.9692 47.6593H0L5.80753 0.419983H18.6974L32.1539 23.2252L34.2078 27.0496L36.0492 30.6616L36.9699 32.4322C37.0407 29.4576 37.1823 27.1205 37.5365 24.3583L40.4402 0.419983Z" fill="#080808"/>
<path d="M82.9238 34.2028H59.2688C59.2688 35.336 59.2688 38.0981 60.8977 39.5854C61.4643 40.152 62.5975 40.7894 64.5097 40.7894C65.5012 40.7894 66.5636 40.5769 67.4843 39.9395C68.405 39.3021 68.8299 38.523 69.0424 37.8148H81.7907C81.0116 40.152 79.7368 42.135 78.3203 43.5515C74.2834 47.7301 68.3342 48.58 64.5805 48.58C57.9231 48.58 54.2403 46.0303 52.4697 44.4014C50.4158 42.4183 48.1495 38.8772 48.1495 33.2113C48.1495 27.1205 50.6283 22.7294 53.3196 20.1089C56.0817 17.4176 60.402 15.0805 66.8469 15.0805C72.7961 15.0805 76.5497 17.2052 78.8161 19.4715C82.0739 22.7294 83.0655 27.4037 83.0655 31.5115C83.0655 32.4322 82.9947 33.3529 82.9238 34.2028ZM60.0478 27.6162H71.0963C71.0255 26.1289 70.3881 24.7125 69.4674 23.8626C68.6175 23.0835 67.3427 22.5877 65.7845 22.5877C64.1556 22.5877 62.6683 23.2252 61.7476 24.1459C60.8269 25.0666 60.2603 26.483 60.0478 27.6162Z" fill="#080808"/>
<path d="M126.023 16.0012H133.823L120.287 47.6593H111.929L108.813 36.3275C108.105 33.8487 107.751 32.1489 107.397 29.2452C106.476 31.6532 105.414 34.0612 104.493 35.7609L98.048 47.6593H89.4783L79.2089 16.0012H91.0364L94.2235 25.8456C94.9317 28.112 95.4983 30.2367 95.9941 33.1405C97.0564 30.3075 97.3397 29.5993 99.1103 26.3414L104.705 16.0012H112.496L115.541 25.5623C116.462 28.4661 116.887 30.1659 117.312 32.4322C118.162 30.2367 118.799 28.7494 119.862 26.908L126.023 16.0012Z" fill="#080808"/>
<path d="M164.759 47.6591H138.436C127.695 47.6591 120.73 39.8095 120.73 29.304C120.73 14.9033 132.239 4.75188 145.991 4.75188H169.658L168.064 13.9589H144.397C136.607 13.9589 129.997 20.156 129.997 28.2417C129.997 34.2027 133.951 38.4521 140.089 38.4521H157.205L158.739 29.4811H140.62L141.918 22.2217H169.245L164.759 47.6591Z" fill="#FEE302"/>
<path d="M207.998 29.4811H185.217L186.515 22.2217H209.297L207.998 29.4811ZM206.523 47.6591H167.511L175.065 4.75188H214.018L212.425 13.9589H182.62L178.311 38.4521H208.175L206.523 47.6591Z" fill="#FEE302"/>
<path d="M245.698 46.4787L222.503 18.2674L217.369 47.6591H208.634L215.362 9.65051C215.952 6.28639 218.077 4.2207 220.91 4.2207C222.267 4.2207 223.271 4.63384 224.333 5.93227L247.351 33.7305L252.662 4.33874H261.456L254.728 42.7605C254.138 46.1836 251.836 48.2493 249.121 48.2493C247.705 48.2493 246.701 47.7182 245.698 46.4787Z" fill="#FEE302"/>
</svg>
