<svg width="88" height="88" viewBox="0 0 88 88" fill="none" xmlns="http://www.w3.org/2000/svg">
<path d="M80.6924 2.71022L38.2641 38.853C38.0984 38.9936 37.9636 39.1669 37.8683 39.3622C37.773 39.5574 37.7193 39.7703 37.7104 39.9874C37.7015 40.2044 37.7378 40.421 37.8169 40.6234C37.8959 40.8257 38.0161 41.0095 38.1698 41.163L47.5983 50.5916C47.7451 50.7372 47.9193 50.8525 48.1107 50.9307C48.3022 51.0089 48.5072 51.0485 48.714 51.0473C48.9303 51.0385 49.1425 50.9851 49.3372 50.8905C49.5319 50.7958 49.7049 50.662 49.8454 50.4973L85.9881 8.06879C86.2471 7.76841 86.383 7.38118 86.3684 6.98479C86.3538 6.58841 86.1899 6.2122 85.9095 5.93165L82.7667 2.78879C82.4895 2.52578 82.1261 2.37273 81.7443 2.35827C81.3626 2.34381 80.9886 2.46893 80.6924 2.71022Z" fill="#FEE302"/>
<path d="M33.8012 49.303C32.7467 48.9473 31.6135 48.8942 30.5303 49.1497C29.4471 49.4053 28.4571 49.9592 27.6727 50.7487L27.0913 51.3302C26.7497 51.672 26.5578 52.1355 26.5578 52.6187C26.5578 53.102 26.7497 53.5655 27.0913 53.9073C27.6888 54.5064 28.1233 55.2483 28.3536 56.0625C28.5839 56.8767 28.6024 57.7363 28.4071 58.5596C28.2119 59.3829 27.8096 60.1427 27.2383 60.7669C26.6669 61.391 25.9456 61.8588 25.1427 62.1259L20.6799 63.6187L24.3099 64.8287C26.0275 65.4053 27.8425 65.6355 29.6497 65.5061C31.4569 65.3766 33.2205 64.89 34.8384 64.0744C36.2611 63.3675 37.4416 62.2537 38.23 60.8745C39.0184 59.4952 39.3791 57.9128 39.2662 56.3281C39.1534 54.7435 38.5722 53.2281 37.5963 51.9745C36.6205 50.7208 35.294 49.7855 33.7855 49.2873L33.8012 49.303Z" fill="#FEE302"/>
<path d="M20.4285 38.4759C23.0321 38.4759 25.1427 36.3653 25.1427 33.7616C25.1427 31.158 23.0321 29.0473 20.4285 29.0473C17.8248 29.0473 15.7142 31.158 15.7142 33.7616C15.7142 36.3653 17.8248 38.4759 20.4285 38.4759Z" fill="#FEE302"/>
<path d="M31.4284 22.7616C33.1641 22.7616 34.5712 21.3545 34.5712 19.6188C34.5712 17.883 33.1641 16.4759 31.4284 16.4759C29.6926 16.4759 28.2855 17.883 28.2855 19.6188C28.2855 21.3545 29.6926 22.7616 31.4284 22.7616Z" fill="#FEE302"/>
<path d="M52.2971 51.8572C51.8684 52.3369 51.3462 52.7237 50.7624 52.994C50.1787 53.2642 49.5458 53.4121 48.9028 53.4286H48.7142C47.4643 53.4275 46.2661 52.9301 45.3828 52.0458L35.9543 42.6172C35.4949 42.1578 35.1354 41.6084 34.8984 41.0034C34.6613 40.3984 34.5519 39.751 34.577 39.1017C34.6021 38.4525 34.7611 37.8154 35.0441 37.2305C35.3271 36.6456 35.7279 36.1256 36.2214 35.703L65.9998 10.3401L65.6698 10.0101C62.5003 6.82613 58.731 4.30208 54.5799 2.58391C50.4288 0.865741 45.9783 -0.0124443 41.4857 0.000133213C35.7209 -0.0149416 30.0462 1.42971 24.9904 4.19944C19.9345 6.96916 15.6622 10.9738 12.5716 15.8401C4.32593 28.812 -0.0361797 43.8722 0.00022603 59.2429C0.000241177 65.7216 2.18794 72.0105 6.2088 77.0905C10.2297 82.1704 15.8481 85.7438 22.1536 87.2315C28.4592 88.7192 35.0823 88.0341 40.9498 85.2872C46.8173 82.5404 51.5854 77.8926 54.4813 72.0972C54.9493 71.1652 55.6319 70.3577 56.473 69.7412C57.3141 69.1246 58.2896 68.7167 59.3193 68.551C60.3489 68.3853 61.4031 68.4665 62.3952 68.788C63.3873 69.1094 64.2888 69.662 65.0256 70.4001L66.3456 71.7201C68.1191 73.4959 70.3797 74.7055 72.8412 75.1958C75.3026 75.6861 77.8542 75.4349 80.1729 74.4741C82.4915 73.5134 84.4729 71.8862 85.8662 69.7986C87.2595 67.7111 88.002 65.257 87.9997 62.7472C88.0389 48.7839 84.0505 35.1055 76.5126 23.3515L52.2971 51.8572ZM44 6.28584C44.9324 6.28584 45.8438 6.56233 46.6191 7.08034C47.3943 7.59835 47.9986 8.33462 48.3554 9.19605C48.7122 10.0575 48.8055 11.0054 48.6236 11.9198C48.4417 12.8343 47.9927 13.6743 47.3334 14.3336C46.6741 14.9929 45.8341 15.4419 44.9197 15.6238C44.0052 15.8057 43.0573 15.7124 42.1959 15.3556C41.3345 14.9987 40.5982 14.3945 40.0802 13.6192C39.5622 12.844 39.2857 11.9325 39.2857 11.0001C39.2857 9.74982 39.7824 8.55072 40.6665 7.66662C41.5506 6.78252 42.7497 6.28584 44 6.28584ZM31.4286 12.5715C32.6718 12.5715 33.8871 12.9402 34.9207 13.6309C35.9544 14.3216 36.7601 15.3033 37.2358 16.4518C37.7116 17.6004 37.836 18.8642 37.5935 20.0835C37.351 21.3028 36.7523 22.4229 35.8733 23.3019C34.9942 24.181 33.8742 24.7797 32.6549 25.0222C31.4356 25.2647 30.1717 25.1402 29.0232 24.6645C27.8746 24.1887 26.8929 23.3831 26.2023 22.3494C25.5116 21.3157 25.1429 20.1005 25.1429 18.8573C25.1429 17.1902 25.8052 15.5914 26.984 14.4126C28.1628 13.2338 29.7615 12.5715 31.4286 12.5715ZM20.4287 25.143C21.9827 25.143 23.5018 25.6038 24.7938 26.4671C26.0859 27.3305 27.093 28.5576 27.6877 29.9933C28.2824 31.429 28.438 33.0088 28.1348 34.533C27.8316 36.0571 27.0833 37.4571 25.9845 38.5559C24.8856 39.6548 23.4857 40.4031 21.9615 40.7063C20.4374 41.0094 18.8576 40.8538 17.4219 40.2591C15.9862 39.6645 14.7591 38.6574 13.8957 37.3653C13.0324 36.0732 12.5716 34.5541 12.5716 33.0001C12.5716 30.9163 13.3994 28.9178 14.8729 27.4443C16.3464 25.9708 18.3448 25.143 20.4287 25.143ZM36.2529 66.1258C33.9082 67.308 31.3201 67.9267 28.6943 67.9329C26.8674 67.9283 25.0531 67.6312 23.3201 67.0529L15.2116 64.4286C14.8972 64.3253 14.6234 64.1253 14.4294 63.8573C14.2353 63.5892 14.1308 63.2667 14.1308 62.9358C14.1308 62.6048 14.2353 62.2824 14.4294 62.0143C14.6234 61.7462 14.8972 61.5463 15.2116 61.4429L24.1529 58.4729C24.4498 58.3761 24.7161 58.2033 24.9256 57.9718C25.1351 57.7402 25.2805 57.458 25.3472 57.1529C25.4193 56.8496 25.4123 56.5329 25.327 56.233C25.2418 55.9331 25.081 55.6601 24.8601 55.4401C23.9331 54.5094 23.4127 53.2494 23.4127 51.9358C23.4127 50.6222 23.9331 49.3622 24.8601 48.4315L25.4415 47.8501C26.6439 46.6288 28.1674 45.7727 29.8358 45.3806C31.5042 44.9886 33.2495 45.0765 34.87 45.6344C36.9597 46.3372 38.7947 47.6425 40.1441 49.3861C41.4935 51.1296 42.2968 53.2334 42.4531 55.4325C42.6093 57.6317 42.1114 59.8279 41.0221 61.7447C39.9328 63.6615 38.3008 65.2132 36.3314 66.2044L36.2529 66.1258Z" fill="#FEE302"/>
<path d="M43.9997 13.3331C44.8676 13.3331 45.5712 12.6295 45.5712 11.7617C45.5712 10.8938 44.8676 10.1902 43.9997 10.1902C43.1319 10.1902 42.4283 10.8938 42.4283 11.7617C42.4283 12.6295 43.1319 13.3331 43.9997 13.3331Z" fill="#FEE302"/>
</svg>
